name Walk9.mot
datacolumns 19
datarows 27
range 2.82000000 2.95000000
endheader

                time	   L_ground_force_vx	   L_ground_force_vy	   L_ground_force_vz	   L_ground_force_px	   L_ground_force_py	   L_ground_force_pz	   R_ground_force_vx	   R_ground_force_vy	   R_ground_force_vz	   R_ground_force_px	   R_ground_force_py	   R_ground_force_pz	   L_ground_torque_x	   L_ground_torque_y	   L_ground_torque_z	   R_ground_torque_x	   R_ground_torque_y	   R_ground_torque_z	
          2.82000000	          6.77696995	        754.35477498	         52.70230756	         -0.18957467	          0.00000000	         -0.06359838	          0.00373779	          0.01263904	          0.00810831	          0.00004859	          0.00000000	          0.00002156	          0.00000000	          3.26369758	          0.00000000	          0.00000000	         -0.00126553	          0.00000000	
          2.82500000	          9.38698448	        758.90868458	         53.13863321	         -0.18886271	          0.00000000	         -0.06359465	          0.00365599	          0.03846347	          0.01265504	          0.00007719	          0.00000000	          0.00003433	          0.00000000	          3.24986674	          0.00000000	          0.00000000	         -0.00148585	          0.00000000	
          2.83000000	         12.09877096	        763.54782130	         53.59890271	         -0.18818540	          0.00000000	         -0.06359337	          0.00307755	          0.07398992	          0.01818439	          0.00011227	          0.00000000	          0.00005001	          0.00000000	          3.23143457	          0.00000000	          0.00000000	         -0.00164618	          0.00000000	
          2.83500000	         14.91166495	        768.23005465	         54.08460678	         -0.18754173	          0.00000000	         -0.06359340	          0.00179599	          0.12026412	          0.02456411	          0.00015313	          0.00000000	          0.00006830	          0.00000000	          3.20720002	          0.00000000	          0.00000000	         -0.00169317	          0.00000000	
          2.84000000	         17.82487370	        772.91584537	         54.59609985	         -0.18692990	          0.00000000	         -0.06359380	         -0.00042394	          0.17759122	          0.03148307	          0.00019797	          0.00000000	          0.00008840	          0.00000000	          3.17602395	          0.00000000	          0.00000000	         -0.00155763	          0.00000000	
          2.84500000	         20.83698590	        777.56935589	         55.13298321	         -0.18634789	          0.00000000	         -0.06359346	         -0.00383337	          0.24508395	          0.03838961	          0.00024347	          0.00000000	          0.00010884	          0.00000000	          3.13737048	          0.00000000	          0.00000000	         -0.00115417	          0.00000000	
          2.85000000	         23.94535605	        782.15946157	         55.69446837	         -0.18579382	          0.00000000	         -0.06359115	         -0.00867721	          0.32010502	          0.04442500	          0.00028439	          0.00000000	          0.00012729	          0.00000000	          3.09165139	          0.00000000	          0.00000000	         -0.00038268	          0.00000000	
          2.85500000	         27.14544676	        786.65903998	         56.27908064	         -0.18526709	          0.00000000	         -0.06358732	         -0.01516045	          0.39761341	          0.04835762	          0.00031313	          0.00000000	          0.00014035	          0.00000000	          3.03992236	          0.00000000	          0.00000000	          0.00086756	          0.00000000	
          2.86000000	         30.43097748	        791.04404390	         56.88412996	         -0.18476791	          0.00000000	         -0.06358373	         -0.02340057	          0.46944152	          0.04852622	          0.00031933	          0.00000000	          0.00014342	          0.00000000	          2.98311871	          0.00000000	          0.00000000	          0.00271016	          0.00000000	
          2.86500000	         33.79505342	        795.29403420	         57.50535923	         -0.18429646	          0.00000000	         -0.06358308	         -0.03336410	          0.52355350	          0.04280449	          0.00028961	          0.00000000	          0.00013051	          0.00000000	          2.92199837	          0.00000000	          0.00000000	          0.00524923	          0.00000000	
          2.87000000	         37.23038969	        799.39145773	         58.13722373	         -0.18385184	          0.00000000	         -0.06358755	         -0.04478630	          0.54336578	          0.02860314	          0.00020756	          0.00000000	          0.00009429	          0.00000000	          2.85747464	          0.00000000	          0.00000000	          0.00856124	          0.00000000	
          2.87500000	         40.72786183	        803.32231673	         58.77313877	         -0.18343180	          0.00000000	         -0.06359766	         -0.05707444	          0.50724839	          0.00293027	          0.00005401	          0.00000000	          0.00002618	          0.00000000	          2.79083509	          0.00000000	          0.00000000	          0.01267007	          0.00000000	
          2.88000000	         44.27689490	        807.07507406	         59.40632471	         -0.18303378	          0.00000000	         -0.06361265	         -0.06919743	          0.38836969	         -0.03746487	         -0.00019209	          0.00000000	         -0.00008326	          0.00000000	          2.72352422	          0.00000000	          0.00000000	          0.01751473	          0.00000000	
          2.88500000	         47.86732013	        810.63531534	         60.03057618	         -0.18265513	          0.00000000	         -0.06363112	         -0.07956779	          0.15509577	         -0.09583576	         -0.00055217	          0.00000000	         -0.00024365	          0.00000000	          2.65721839	          0.00000000	          0.00000000	          0.02290932	          0.00000000	
          2.89000000	         51.48984704	        813.98013546	         60.64044408	         -0.18229333	          0.00000000	         -0.06365235	         -0.08592617	         -0.22779452	         -0.17503890	         -0.00104557	          0.00000000	         -0.00046371	          0.00000000	          2.59340235	          0.00000000	          0.00000000	          0.02849619	          0.00000000	
          2.89500000	         55.13689457	        817.07883258	         61.23188776	         -0.18194676	          0.00000000	         -0.06367620	         -0.08524421	         -0.79677239	         -0.27695945	         -0.00168603	          0.00000000	         -0.00074967	          0.00000000	          2.53312673	          0.00000000	          0.00000000	          0.03369385	          0.00000000	
          2.90000000	         58.80303259	        819.89622473	         61.80258167	         -0.18161535	          0.00000000	         -0.06370207	         -0.07366775	         -1.58576054	         -0.40173542	         -0.00247680	          0.00000000	         -0.00110315	          0.00000000	          2.47673233	          0.00000000	          0.00000000	          0.03764358	          0.00000000	
          2.90500000	         62.48513701	        822.39638783	         62.35129320	         -0.18130053	          0.00000000	         -0.06372817	         -0.04653036	         -2.62052385	         -0.54676327	         -0.00340445	          0.00000000	         -0.00151831	          0.00000000	          2.42383680	          0.00000000	          0.00000000	          0.03916019	          0.00000000	
          2.91000000	         66.18229165	        824.54242124	         62.87788268	         -0.18100412	          0.00000000	         -0.06375245	          0.00152563	         -3.91092858	         -0.70548550	         -0.00443116	          0.00000000	         -0.00197845	          0.00000000	          2.37372256	          0.00000000	          0.00000000	          0.03669562	          0.00000000	
          2.91500000	         69.89481856	        826.29541689	         63.38308188	         -0.18072741	          0.00000000	         -0.06377334	          0.07627502	         -5.44083222	         -0.86598755	         -0.00548569	          0.00000000	         -0.00245198	          0.00000000	          2.32590514	          0.00000000	          0.00000000	          0.02832683	          0.00000000	
          2.92000000	         73.62251604	        827.61370444	         63.86842222	         -0.18047083	          0.00000000	         -0.06379012	          0.18343085	         -7.15552553	         -1.00947061	         -0.00645357	          0.00000000	         -0.00288800	          0.00000000	          2.28030236	          0.00000000	          0.00000000	          0.01178320	          0.00000000	
          2.92500000	         77.36445921	        828.45174660	         64.33577701	         -0.18023329	          0.00000000	         -0.06380298	          0.32790530	         -8.94690625	         -1.10871910	         -0.00716695	          0.00000000	         -0.00321174	          0.00000000	          2.23688902	          0.00000000	          0.00000000	         -0.01546780	          0.00000000	
          2.93000000	         81.11990425	        828.76186640	         64.78692886	         -0.18001329	          0.00000000	         -0.06381299	          0.51275590	        -10.63694423	         -1.12674900	         -0.00739550	          0.00000000	         -0.00332049	          0.00000000	          2.19539079	          0.00000000	          0.00000000	         -0.05605484	          0.00000000	
          2.93500000	         84.88975543	        828.49283885	         65.22204335	         -0.17980892	          0.00000000	         -0.06382162	          0.73777097	        -11.96052125	         -1.01590466	         -0.00683983	          0.00000000	         -0.00308055	          0.00000000	          2.15511361	          0.00000000	          0.00000000	         -0.11243231	          0.00000000	
          2.94000000	         88.67665833	        827.59323031	         65.63857393	         -0.17961761	          0.00000000	         -0.06382896	          0.99766702	        -12.54941228	         -0.71776667	         -0.00512977	          0.00000000	         -0.00232648	          0.00000000	          2.11512111	          0.00000000	          0.00000000	         -0.18648012	          0.00000000	
          2.94500000	         92.48255748	        826.01665999	         66.03107861	         -0.17943530	          0.00000000	         -0.06383406	          1.27990330	        -11.92002208	         -0.16433556	         -0.00183050	          0.00000000	         -0.00086368	          0.00000000	          2.07456748	          0.00000000	          0.00000000	         -0.27895056	          0.00000000	
          2.95000000	         96.30583631	        823.72530191	         66.39048813	         -0.17925634	          0.00000000	         -0.06383601	          1.56216881	         -9.46849034	          0.71894087	          0.00354006	          0.00000000	          0.00152390	          0.00000000	          2.03325043	          0.00000000	          0.00000000	         -0.38874463	          0.00000000	
